REM MD5 8fb3204d43403ee019bcfd327126fbf5
FILE "Gratis! Demo Disc! (Spain).bin" BINARY
  TRACK 01 MODE2/2352
    INDEX 01 00:00:00
  TRACK 02 AUDIO
    INDEX 00 35:33:33
    INDEX 01 35:35:33
  TRACK 03 AUDIO
    INDEX 00 38:37:40
    INDEX 01 38:39:40
  TRACK 04 AUDIO
    INDEX 00 41:41:47
    INDEX 01 41:43:47
REM LEADOUT 44:45:04
